# xmcd
#
# Track frame offsets: 
#        150
#        20152
#        66025
#
# Disc length: 1252 seconds
#
# Revision: 0
# Processed by: cddbd v1.5.1PL2 Copyright (c) Steve Scherf et al.
# Submitted via: ExactAudioCopy v0.95a5
#
DISCID=2204e203
DTITLE=Sheryl Crow - Soak up the sun (sunsweep remixe)
DYEAR=1900
DGENRE=
TTITLE0=radio edit
TTITLE1=club mix
TTITLE2=dub
EXTD=
EXTT0=
EXTT1=
EXTT2=
PLAYORDER=
